<?xml version="1.0" standalone="yes"?>
<svg xmlns="http://www.w3.org/2000/svg" width="288" height="175">
<path style="fill:#ffffff; stroke:none;" d="M0 0L0 175L288 175L288 0L0 0z"/>
<path style="fill:#b6b6b7; stroke:none;" d="M133 14L133 15L136 15L133 14z"/>
<path style="fill:#8a8b8c; stroke:none;" d="M136.667 14.3333L137.333 14.6667L136.667 14.3333z"/>
<path style="fill:#5f6062; stroke:none;" d="M138 14L138 15L141 15L138 14z"/>
<path style="fill:#4a4c4f; stroke:none;" d="M71 81L108 81C114.666 43.6028 170.662 45.913 179 81L217 81C211.264 8.92889 105.804 -10.9611 77.0147 57C73.7582 64.6874 71.3597 72.6227 71 81z"/>
<path style="fill:#5f6062; stroke:none;" d="M147.667 14.3333L148.333 14.6667L147.667 14.3333z"/>
<path style="fill:#8a8b8c; stroke:none;" d="M149 14L149 15L152 15L149 14z"/>
<path style="fill:#b6b6b7; stroke:none;" d="M152 14L152 15L155 15L152 14M127.667 15.3333L128.333 15.6667L127.667 15.3333z"/>
<path style="fill:#8a8b8c; stroke:none;" d="M129 15L130 16L129 15z"/>
<path style="fill:#5f6062; stroke:none;" d="M130 15L131 16L130 15M156.667 15.3333L157.333 15.6667L156.667 15.3333z"/>
<path style="fill:#b6b6b7; stroke:none;" d="M158.667 15.3333L159.333 15.6667L158.667 15.3333M124 16L125 17L124 16z"/>
<path style="fill:#8a8b8c; stroke:none;" d="M125 16L126 17L125 16z"/>
<path style="fill:#5f6062; stroke:none;" d="M126 16L127 17L126 16M161 16L162 17L161 16z"/>
<path style="fill:#8a8b8c; stroke:none;" d="M162 16L163 17L162 16z"/>
<path style="fill:#b6b6b7; stroke:none;" d="M163 16L164 17L163 16M120 17L121 18L120 17z"/>
<path style="fill:#8a8b8c; stroke:none;" d="M121 17L122 18L121 17z"/>
<path style="fill:#5f6062; stroke:none;" d="M122 17L123 18L122 17z"/>
<path style="fill:#8a8b8c; stroke:none;" d="M165 17L166 18L165 17z"/>
<path style="fill:#b6b6b7; stroke:none;" d="M166 17L167 18L166 17M118 18L119 19L118 18z"/>
<path style="fill:#5f6062; stroke:none;" d="M119 18L120 19L119 18z"/>
<path style="fill:#8a8b8c; stroke:none;" d="M168 18L169 19L168 18z"/>
<path style="fill:#b6b6b7; stroke:none;" d="M169 18L170 19L169 18M115 19L116 20L115 19z"/>
<path style="fill:#8a8b8c; stroke:none;" d="M116 19L117 20L116 19M171 19L172 20L171 19z"/>
<path style="fill:#b6b6b7; stroke:none;" d="M113 20L114 21L113 20z"/>
<path style="fill:#5f6062; stroke:none;" d="M114 20L115 21L114 20z"/>
<path style="fill:#8a8b8c; stroke:none;" d="M173 20L174 21L173 20z"/>
<path style="fill:#b6b6b7; stroke:none;" d="M174 20L175 21L174 20M111 21L112 22L111 21z"/>
<path style="fill:#5f6062; stroke:none;" d="M175 21L176 22L175 21z"/>
<path style="fill:#b6b6b7; stroke:none;" d="M176 21L177 22L176 21M109 22L110 23L109 22z"/>
<path style="fill:#5f6062; stroke:none;" d="M177 22L178 23L177 22z"/>
<path style="fill:#b6b6b7; stroke:none;" d="M178 22L179 23L178 22M107 23L108 24L107 23z"/>
<path style="fill:#5f6062; stroke:none;" d="M179 23L180 24L179 23z"/>
<path style="fill:#b6b6b7; stroke:none;" d="M180 23L181 24L180 23M105 24L106 25L105 24z"/>
<path style="fill:#5f6062; stroke:none;" d="M106 24L107 25L106 24z"/>
<path style="fill:#8a8b8c; stroke:none;" d="M181 24L182 25L181 24M104 25L105 26L104 25z"/>
<path style="fill:#b6b6b7; stroke:none;" d="M183 25L184 26L183 25M102 26L103 27L102 26z"/>
<path style="fill:#8a8b8c; stroke:none;" d="M184 26L185 27L184 26M101 27L102 28L101 27z"/>
<path style="fill:#b6b6b7; stroke:none;" d="M186 27L187 28L186 27M99 28L100 29L99 28z"/>
<path style="fill:#5f6062; stroke:none;" d="M100 28L101 29L100 28z"/>
<path style="fill:#8a8b8c; stroke:none;" d="M187 28L188 29L187 28z"/>
<path style="fill:#b6b6b7; stroke:none;" d="M98 29L99 30L98 29z"/>
<path style="fill:#5f6062; stroke:none;" d="M188 29L189 30L188 29z"/>
<path style="fill:#8a8b8c; stroke:none;" d="M97 30L98 31L97 30z"/>
<path style="fill:#b6b6b7; stroke:none;" d="M190 30L191 31L190 30z"/>
<path style="fill:#8a8b8c; stroke:none;" d="M96 31L97 32L96 31z"/>
<path style="fill:#b6b6b7; stroke:none;" d="M191 31L192 32L191 31M94 32L95 33L94 32z"/>
<path style="fill:#5f6062; stroke:none;" d="M95 32L96 33L95 32z"/>
<path style="fill:#8a8b8c; stroke:none;" d="M192 32L193 33L192 32z"/>
<path style="fill:#b6b6b7; stroke:none;" d="M93 33L94 34L93 33z"/>
<path style="fill:#5f6062; stroke:none;" d="M193 33L194 34L193 33z"/>
<path style="fill:#b6b6b7; stroke:none;" d="M92 34L93 35L92 34z"/>
<path style="fill:#5f6062; stroke:none;" d="M194 34L195 35L194 34z"/>
<path style="fill:#b6b6b7; stroke:none;" d="M91 35L92 36L91 35z"/>
<path style="fill:#5f6062; stroke:none;" d="M195 35L196 36L195 35z"/>
<path style="fill:#b6b6b7; stroke:none;" d="M90 36L91 37L90 36z"/>
<path style="fill:#5f6062; stroke:none;" d="M196 36L197 37L196 36z"/>
<path style="fill:#b6b6b7; stroke:none;" d="M89 37L90 38L89 37z"/>
<path style="fill:#5f6062; stroke:none;" d="M197 37L198 38L197 37M89 38L90 39L89 38z"/>
<path style="fill:#8a8b8c; stroke:none;" d="M198 38L199 39L198 38z"/>
<path style="fill:#5f6062; stroke:none;" d="M88 39L89 40L88 39z"/>
<path style="fill:#b6b6b7; stroke:none;" d="M199 39L200 40L199 39z"/>
<path style="fill:#5f6062; stroke:none;" d="M87 40L88 41L87 40z"/>
<path style="fill:#b6b6b7; stroke:none;" d="M200 40L201 41L200 40z"/>
<path style="fill:#8a8b8c; stroke:none;" d="M86 41L87 42L86 41z"/>
<path style="fill:#b6b6b7; stroke:none;" d="M201 41L202 42L201 41M85 42L86 43L85 42M202 42L203 43L202 42M84 43L85 44L84 43z"/>
<path style="fill:#5f6062; stroke:none;" d="M202 43L203 44L202 43M84 44L85 45L84 44z"/>
<path style="fill:#8a8b8c; stroke:none;" d="M203 44L204 45L203 44M83 45L84 46L83 45z"/>
<path style="fill:#b6b6b7; stroke:none;" d="M204 45L205 46L204 45M82 46L83 47L82 46z"/>
<path style="fill:#5f6062; stroke:none;" d="M204 46L205 47L204 46M82 47L83 48L82 47z"/>
<path style="fill:#8a8b8c; stroke:none;" d="M205 47L206 48L205 47M81 48L82 49L81 48z"/>
<path style="fill:#b6b6b7; stroke:none;" d="M206 48L207 49L206 48M80 49L81 50L80 49z"/>
<path style="fill:#5f6062; stroke:none;" d="M206 49L207 50L206 49M80 50L81 51L80 50z"/>
<path style="fill:#b6b6b7; stroke:none;" d="M207 50L208 51L207 50M79 51L80 52L79 51z"/>
<path style="fill:#8a8b8c; stroke:none;" d="M208 52L209 53L208 52z"/>
<path style="fill:#b6b6b7; stroke:none;" d="M78 53L79 54L78 53z"/>
<path style="fill:#5f6062; stroke:none;" d="M137.667 53.3333L138.333 53.6667L137.667 53.3333z"/>
<path style="fill:#8a8b8c; stroke:none;" d="M139.667 53.3333L140.333 53.6667L139.667 53.3333z"/>
<path style="fill:#b6b6b7; stroke:none;" d="M141 53L141 54L146 54L141 53z"/>
<path style="fill:#8a8b8c; stroke:none;" d="M146.667 53.3333L147.333 53.6667L146.667 53.3333z"/>
<path style="fill:#5f6062; stroke:none;" d="M148.667 53.3333L149.333 53.6667L148.667 53.3333M133 54L134 55L133 54z"/>
<path style="fill:#b6b6b7; stroke:none;" d="M134.667 54.3333L135.333 54.6667L134.667 54.3333M151 54L152 55L151 54z"/>
<path style="fill:#8a8b8c; stroke:none;" d="M152 54L153 55L152 54z"/>
<path style="fill:#5f6062; stroke:none;" d="M153 54L154 55L153 54z"/>
<path style="fill:#8a8b8c; stroke:none;" d="M209 54L210 55L209 54z"/>
<path style="fill:#b6b6b7; stroke:none;" d="M77 55L78 56L77 55z"/>
<path style="fill:#5f6062; stroke:none;" d="M130 55L131 56L130 55z"/>
<path style="fill:#b6b6b7; stroke:none;" d="M131 55L132 56L131 55M155 55L156 56L155 55z"/>
<path style="fill:#5f6062; stroke:none;" d="M156 55L157 56L156 55z"/>
<path style="fill:#8a8b8c; stroke:none;" d="M128 56L129 57L128 56z"/>
<path style="fill:#b6b6b7; stroke:none;" d="M157 56L158 57L157 56z"/>
<path style="fill:#8a8b8c; stroke:none;" d="M158 56L159 57L158 56M210 56L211 57L210 56z"/>
<path style="fill:#b6b6b7; stroke:none;" d="M76 57L77 58L76 57z"/>
<path style="fill:#8a8b8c; stroke:none;" d="M126 57L127 58L126 57M160 57L161 58L160 57z"/>
<path style="fill:#5f6062; stroke:none;" d="M76 58L77 59L76 58z"/>
<path style="fill:#8a8b8c; stroke:none;" d="M124 58L125 59L124 58z"/>
<path style="fill:#b6b6b7; stroke:none;" d="M161 58L162 59L161 58z"/>
<path style="fill:#5f6062; stroke:none;" d="M162 58L163 59L162 58z"/>
<path style="fill:#8a8b8c; stroke:none;" d="M211 58L212 59L211 58z"/>
<path style="fill:#b6b6b7; stroke:none;" d="M75 59L76 60L75 59z"/>
<path style="fill:#5f6062; stroke:none;" d="M122 59L123 60L122 59z"/>
<path style="fill:#b6b6b7; stroke:none;" d="M123 59L124 60L123 59M163 59L164 60L163 59z"/>
<path style="fill:#5f6062; stroke:none;" d="M164 59L165 60L164 59M75 60L76 61L75 60z"/>
<path style="fill:#8a8b8c; stroke:none;" d="M121 60L122 61L121 60M165 60L166 61L165 60z"/>
<path style="fill:#b6b6b7; stroke:none;" d="M212 60L213 61L212 60M120 61L121 62L120 61M166 61L167 62L166 61z"/>
<path style="fill:#8a8b8c; stroke:none;" d="M212 61L213 62L212 61z"/>
<path style="fill:#b6b6b7; stroke:none;" d="M74 62L75 63L74 62M119 62L120 63L119 62M137.667 62.3333L138.333 62.6667L137.667 62.3333z"/>
<path style="fill:#8a8b8c; stroke:none;" d="M139.667 62.3333L140.333 62.6667L139.667 62.3333z"/>
<path style="fill:#5f6062; stroke:none;" d="M141 62L141 63L146 63L141 62z"/>
<path style="fill:#8a8b8c; stroke:none;" d="M146 62L147 63L146 62z"/>
<path style="fill:#b6b6b7; stroke:none;" d="M147 62L147 63L150 63L147 62M167 62L168 63L167 62z"/>
<path style="fill:#5f6062; stroke:none;" d="M74 63L75 64L74 63M117 63L118 64L117 63z"/>
<path style="fill:#b6b6b7; stroke:none;" d="M134 63L135 64L134 63z"/>
<path style="fill:#8a8b8c; stroke:none;" d="M135 63L136 64L135 63z"/>
<path style="fill:#4a4c4f; stroke:none;" d="M136 63.5293C100.774 71.6155 115.795 122.78 150 115.482C186.458 107.704 171.241 55.4396 136 63.5293z"/>
<path style="fill:#8a8b8c; stroke:none;" d="M151 63L152 64L151 63z"/>
<path style="fill:#b6b6b7; stroke:none;" d="M152 63L153 64L152 63M168 63L169 64L168 63M213 63L214 64L213 63M73.3333 64.6667L73.6667 65.3333L73.3333 64.6667M131 64L132 65L131 64z"/>
<path style="fill:#8a8b8c; stroke:none;" d="M132 64L133 65L132 64M154 64L155 65L154 64z"/>
<path style="fill:#b6b6b7; stroke:none;" d="M155 64L156 65L155 64M169 64L170 65L169 64z"/>
<path style="fill:#5f6062; stroke:none;" d="M213 64L214 65L213 64z"/>
<path style="fill:#b6b6b7; stroke:none;" d="M116 65L117 66L116 65M129 65L130 66L129 65z"/>
<path style="fill:#5f6062; stroke:none;" d="M130 65L131 66L130 65z"/>
<path style="fill:#8a8b8c; stroke:none;" d="M156 65L157 66L156 65z"/>
<path style="fill:#b6b6b7; stroke:none;" d="M157 65L158 66L157 65M170 65L171 66L170 65z"/>
<path style="fill:#5f6062; stroke:none;" d="M73 66L74 67L73 66z"/>
<path style="fill:#b6b6b7; stroke:none;" d="M115 66L116 67L115 66z"/>
<path style="fill:#8a8b8c; stroke:none;" d="M128 66L129 67L128 66M158 66L159 67L158 66z"/>
<path style="fill:#b6b6b7; stroke:none;" d="M171 66L172 67L171 66M214 66L215 67L214 66M114 67L115 68L114 67M126 67L127 68L126 67M160 67L161 68L160 67z"/>
<path style="fill:#8a8b8c; stroke:none;" d="M172 67L173 68L172 67M214 67L215 68L214 67z"/>
<path style="fill:#b6b6b7; stroke:none;" d="M72 68L73 69L72 68z"/>
<path style="fill:#8a8b8c; stroke:none;" d="M113 68L114 69L113 68M125 68L126 69L125 68M161 68L162 69L161 68z"/>
<path style="fill:#5f6062; stroke:none;" d="M173 68L174 69L173 68z"/>
<path style="fill:#8a8b8c; stroke:none;" d="M72 69L73 70L72 69z"/>
<path style="fill:#5f6062; stroke:none;" d="M112 69L113 70L112 69M124 69L125 70L124 69M162 69L163 70L162 69z"/>
<path style="fill:#b6b6b7; stroke:none;" d="M215 69L216 70L215 69M112 70L113 71L112 70M122 70L123 71L122 70M174 70L175 71L174 70z"/>
<path style="fill:#8a8b8c; stroke:none;" d="M215 70L216 71L215 70M111 71L112 72L111 71z"/>
<path style="fill:#5f6062; stroke:none;" d="M122 71L123 72L122 71M164 71L165 72L164 71M175 71L176 72L175 71M215 71L216 72L215 71z"/>
<path style="fill:#b6b6b7; stroke:none;" d="M71 72L72 73L71 72M111 72L112 73L111 72z"/>
<path style="fill:#5f6062; stroke:none;" d="M121 72L122 73L121 72z"/>
<path style="fill:#8a8b8c; stroke:none;" d="M165 72L166 73L165 72z"/>
<path style="fill:#b6b6b7; stroke:none;" d="M175 72L176 73L175 72z"/>
<path style="fill:#8a8b8c; stroke:none;" d="M71.3333 73.6667L71.6667 74.3333L71.3333 73.6667M110 73L111 74L110 73M120 73L121 74L120 73M166 73L167 74L166 73z"/>
<path style="fill:#5f6062; stroke:none;" d="M176 73L177 74L176 73z"/>
<path style="fill:#b6b6b7; stroke:none;" d="M216.333 73.6667L216.667 74.3333L216.333 73.6667M110 74L111 75L110 74M119 74L120 75L119 74M167 74L168 75L167 74M176 74L177 75L176 74z"/>
<path style="fill:#5f6062; stroke:none;" d="M71 75L72 76L71 75z"/>
<path style="fill:#8a8b8c; stroke:none;" d="M109 75L110 76L109 75z"/>
<path style="fill:#5f6062; stroke:none;" d="M177 75L178 76L177 75z"/>
<path style="fill:#8a8b8c; stroke:none;" d="M216 75L217 76L216 75z"/>
<path style="fill:#b6b6b7; stroke:none;" d="M109 76L110 77L109 76z"/>
<path style="fill:#8a8b8c; stroke:none;" d="M118 76L119 77L118 76M168 76L169 77L168 76z"/>
<path style="fill:#b6b6b7; stroke:none;" d="M177 76L178 77L177 76z"/>
<path style="fill:#5f6062; stroke:none;" d="M216 76L217 77L216 76z"/>
<path style="fill:#b6b6b7; stroke:none;" d="M70 77L70 80L71 80L70 77z"/>
<path style="fill:#5f6062; stroke:none;" d="M108 77L109 78L108 77z"/>
<path style="fill:#b6b6b7; stroke:none;" d="M108.333 78.6667L108.667 79.3333L108.333 78.6667z"/>
<path style="fill:#8a8b8c; stroke:none;" d="M117 78L118 79L117 78M169 78L170 79L169 78M178 78L179 79L178 78z"/>
<path style="fill:#b6b6b7; stroke:none;" d="M178 79L179 80L178 79M217 79L218 80L217 79z"/>
<path style="fill:#8a8b8c; stroke:none;" d="M70 80L71 81L70 80z"/>
<path style="fill:#b6b6b7; stroke:none;" d="M116 80L117 81L116 80M170 80L171 81L170 80z"/>
<path style="fill:#8a8b8c; stroke:none;" d="M217 80L218 81L217 80z"/>
<path style="fill:#b6b6b7; stroke:none;" d="M70 81L70 82L108 82C97.9641 77.7887 80.9106 81 70 81z"/>
<path style="fill:#5f6062; stroke:none;" d="M116 81L117 82L116 81z"/>
<path style="fill:#8a8b8c; stroke:none;" d="M170 81L171 82L170 81z"/>
<path style="fill:#b6b6b7; stroke:none;" d="M179 81L179 82L218 82C207.726 77.6889 190.172 81 179 81M115.333 82.6667L115.667 83.3333L115.333 82.6667M171.333 83.6667L171.667 84.3333L171.333 83.6667z"/>
<path style="fill:#8a8b8c; stroke:none;" d="M115 84L116 85L115 84z"/>
<path style="fill:#5f6062; stroke:none;" d="M115 85L116 86L115 85z"/>
<path style="fill:#8a8b8c; stroke:none;" d="M171 85L172 86L171 85z"/>
<path style="fill:#5f6062; stroke:none;" d="M171 86L172 87L171 86z"/>
<path style="fill:#b6b6b7; stroke:none;" d="M114 89L115 90L114 89z"/>
<path style="fill:#5f6062; stroke:none;" d="M171 92L172 93L171 92M115 93L116 94L115 93z"/>
<path style="fill:#8a8b8c; stroke:none;" d="M171 93L172 94L171 93M115 94L116 95L115 94z"/>
<path style="fill:#b6b6b7; stroke:none;" d="M171.333 94.6667L171.667 95.3333L171.333 94.6667M115.333 95.6667L115.667 96.3333L115.333 95.6667z"/>
<path style="fill:#8a8b8c; stroke:none;" d="M71 96L72 97L71 96z"/>
<path style="fill:#b6b6b7; stroke:none;" d="M72 96L73 97L72 96z"/>
<path style="fill:#8a8b8c; stroke:none;" d="M73 96L73 97L107 97L73 96z"/>
<path style="fill:#b6b6b7; stroke:none;" d="M107 96L108 97L107 96M179 96L180 97L179 96z"/>
<path style="fill:#8a8b8c; stroke:none;" d="M180 96L180 97L216 97C206.44 92.9886 190.387 96 180 96z"/>
<path style="fill:#b6b6b7; stroke:none;" d="M216 96L217 97L216 96M70 97L71 98L70 97z"/>
<path style="fill:#4a4c4f; stroke:none;" d="M71 97C76.7512 126.656 95.9302 150.553 126 158.105C164.857 167.864 215.073 140.507 216 97C207.702 97 187.331 93.2488 180.51 98.0278C177.188 100.355 175.841 106.701 173.39 110C166.512 119.26 155.687 125.717 144 125.946C131.782 126.186 120.745 119.383 113.39 110C110.82 106.721 109.741 100.425 106.44 98.0278C99.8359 93.233 79.1361 97 71 97z"/>
<path style="fill:#5f6062; stroke:none;" d="M107 97L108 98L107 97M116 97L117 98L116 97z"/>
<path style="fill:#8a8b8c; stroke:none;" d="M170 97L171 98L170 97z"/>
<path style="fill:#5f6062; stroke:none;" d="M179 97L180 98L179 97M216 97L217 98L216 97z"/>
<path style="fill:#b6b6b7; stroke:none;" d="M116 98L117 99L116 98M170 98L171 99L170 98z"/>
<path style="fill:#8a8b8c; stroke:none;" d="M216.333 98.6667L216.667 99.3333L216.333 98.6667z"/>
<path style="fill:#5f6062; stroke:none;" d="M71 99L72 100L71 99z"/>
<path style="fill:#b6b6b7; stroke:none;" d="M108 99L109 100L108 99z"/>
<path style="fill:#5f6062; stroke:none;" d="M169 99L170 100L169 99z"/>
<path style="fill:#b6b6b7; stroke:none;" d="M178 99L179 100L178 99z"/>
<path style="fill:#8a8b8c; stroke:none;" d="M71.3333 100.667L71.6667 101.333L71.3333 100.667M108 100L109 101L108 100M117 100L118 101L117 100M169 100L170 101L169 100M178 100L179 101L178 100z"/>
<path style="fill:#b6b6b7; stroke:none;" d="M216.333 100.667L216.667 101.333L216.333 100.667z"/>
<path style="fill:#5f6062; stroke:none;" d="M108 101L109 102L108 101z"/>
<path style="fill:#b6b6b7; stroke:none;" d="M117 101L118 102L117 101M71 102L72 103L71 102M109 102L110 103L109 102z"/>
<path style="fill:#5f6062; stroke:none;" d="M118 102L119 103L118 102z"/>
<path style="fill:#8a8b8c; stroke:none;" d="M168 102L169 103L168 102z"/>
<path style="fill:#b6b6b7; stroke:none;" d="M177 102L178 103L177 102z"/>
<path style="fill:#8a8b8c; stroke:none;" d="M109 103L110 104L109 103z"/>
<path style="fill:#5f6062; stroke:none;" d="M177 103L178 104L177 103z"/>
<path style="fill:#8a8b8c; stroke:none;" d="M215.333 103.667L215.667 104.333L215.333 103.667z"/>
<path style="fill:#5f6062; stroke:none;" d="M72 104L73 105L72 104z"/>
<path style="fill:#b6b6b7; stroke:none;" d="M119 104L120 105L119 104M167 104L168 105L167 104M176 104L177 105L176 104M72.3333 105.667L72.6667 106.333L72.3333 105.667z"/>
<path style="fill:#8a8b8c; stroke:none;" d="M110 105L111 106L110 105M120 105L121 106L120 105z"/>
<path style="fill:#b6b6b7; stroke:none;" d="M166 105L167 106L166 105z"/>
<path style="fill:#5f6062; stroke:none;" d="M176 105L177 106L176 105z"/>
<path style="fill:#b6b6b7; stroke:none;" d="M215 105L216 106L215 105M111 106L112 107L111 106z"/>
<path style="fill:#5f6062; stroke:none;" d="M121 106L122 107L121 106z"/>
<path style="fill:#8a8b8c; stroke:none;" d="M165 106L166 107L165 106z"/>
<path style="fill:#b6b6b7; stroke:none;" d="M175 106L176 107L175 106z"/>
<path style="fill:#5f6062; stroke:none;" d="M214 106L215 107L214 106M111 107L112 108L111 107M122 107L123 108L122 107M164 107L165 108L164 107z"/>
<path style="fill:#8a8b8c; stroke:none;" d="M214 107L215 108L214 107M73 108L74 109L73 108z"/>
<path style="fill:#b6b6b7; stroke:none;" d="M112 108L113 109L112 108z"/>
<path style="fill:#5f6062; stroke:none;" d="M123 108L124 109L123 108M163 108L164 109L163 108z"/>
<path style="fill:#b6b6b7; stroke:none;" d="M174 108L175 109L174 108M214 108L215 109L214 108M73 109L74 110L73 109z"/>
<path style="fill:#5f6062; stroke:none;" d="M112 109L113 110L112 109M124 109L125 110L124 109M162 109L163 110L162 109z"/>
<path style="fill:#8a8b8c; stroke:none;" d="M113 110L114 111L113 110z"/>
<path style="fill:#5f6062; stroke:none;" d="M125 110L126 111L125 110z"/>
<path style="fill:#8a8b8c; stroke:none;" d="M161 110L162 111L161 110z"/>
<path style="fill:#5f6062; stroke:none;" d="M173 110L174 111L173 110z"/>
<path style="fill:#8a8b8c; stroke:none;" d="M213 110L214 111L213 110M74 111L75 112L74 111z"/>
<path style="fill:#b6b6b7; stroke:none;" d="M114 111L115 112L114 111M126 111L127 112L126 111M160 111L161 112L160 111z"/>
<path style="fill:#8a8b8c; stroke:none;" d="M172 111L173 112L172 111z"/>
<path style="fill:#b6b6b7; stroke:none;" d="M213 111L214 112L213 111M74 112L75 113L74 112M115 112L116 113L115 112M127 112L128 113L127 112z"/>
<path style="fill:#5f6062; stroke:none;" d="M128 112L129 113L128 112z"/>
<path style="fill:#8a8b8c; stroke:none;" d="M158 112L159 113L158 112z"/>
<path style="fill:#b6b6b7; stroke:none;" d="M171 112L172 113L171 112z"/>
<path style="fill:#5f6062; stroke:none;" d="M212 112L213 113L212 112z"/>
<path style="fill:#b6b6b7; stroke:none;" d="M116 113L117 114L116 113M129 113L130 114L129 113z"/>
<path style="fill:#5f6062; stroke:none;" d="M130 113L131 114L130 113M156 113L157 114L156 113z"/>
<path style="fill:#b6b6b7; stroke:none;" d="M157 113L158 114L157 113M170 113L171 114L170 113z"/>
<path style="fill:#8a8b8c; stroke:none;" d="M212 113L213 114L212 113M75 114L76 115L75 114z"/>
<path style="fill:#b6b6b7; stroke:none;" d="M117 114L118 115L117 114M131 114L132 115L131 114z"/>
<path style="fill:#8a8b8c; stroke:none;" d="M132 114L133 115L132 114z"/>
<path style="fill:#5f6062; stroke:none;" d="M133 114L134 115L133 114M153 114L154 115L153 114z"/>
<path style="fill:#8a8b8c; stroke:none;" d="M154 114L155 115L154 114z"/>
<path style="fill:#b6b6b7; stroke:none;" d="M155 114L156 115L155 114M169 114L170 115L169 114M212 114L213 115L212 114M75 115L76 116L75 115M118 115L119 116L118 115M134 115L135 116L134 115z"/>
<path style="fill:#8a8b8c; stroke:none;" d="M135 115L136 116L135 115z"/>
<path style="fill:#5f6062; stroke:none;" d="M136 115L137 116L136 115M150 115L151 116L150 115z"/>
<path style="fill:#8a8b8c; stroke:none;" d="M151 115L152 116L151 115z"/>
<path style="fill:#b6b6b7; stroke:none;" d="M152 115L153 116L152 115M168 115L169 116L168 115z"/>
<path style="fill:#5f6062; stroke:none;" d="M211 115L212 116L211 115M76 116L77 117L76 116z"/>
<path style="fill:#b6b6b7; stroke:none;" d="M119 116L120 117L119 116M138 116L138 117L141 117L138 116z"/>
<path style="fill:#8a8b8c; stroke:none;" d="M141 116L141 117L146 117L141 116z"/>
<path style="fill:#b6b6b7; stroke:none;" d="M146 116L146 117L149 117L146 116M167 116L168 117L167 116M211 116L212 117L211 116M76 117L77 118L76 117M120 117L121 118L120 117z"/>
<path style="fill:#8a8b8c; stroke:none;" d="M166 117L167 118L166 117z"/>
<path style="fill:#5f6062; stroke:none;" d="M77 118L78 119L77 118z"/>
<path style="fill:#8a8b8c; stroke:none;" d="M121 118L122 119L121 118z"/>
<path style="fill:#5f6062; stroke:none;" d="M165 118L166 119L165 118z"/>
<path style="fill:#8a8b8c; stroke:none;" d="M210 118L211 119L210 118z"/>
<path style="fill:#b6b6b7; stroke:none;" d="M77 119L78 120L77 119z"/>
<path style="fill:#5f6062; stroke:none;" d="M122 119L123 120L122 119z"/>
<path style="fill:#b6b6b7; stroke:none;" d="M123 119L124 120L123 119M163 119L164 120L163 119z"/>
<path style="fill:#5f6062; stroke:none;" d="M78 120L79 121L78 120z"/>
<path style="fill:#8a8b8c; stroke:none;" d="M124 120L125 121L124 120z"/>
<path style="fill:#b6b6b7; stroke:none;" d="M161 120L162 121L161 120z"/>
<path style="fill:#5f6062; stroke:none;" d="M162 120L163 121L162 120z"/>
<path style="fill:#8a8b8c; stroke:none;" d="M209 120L210 121L209 120z"/>
<path style="fill:#b6b6b7; stroke:none;" d="M78 121L79 122L78 121z"/>
<path style="fill:#8a8b8c; stroke:none;" d="M126 121L127 122L126 121M160 121L161 122L160 121z"/>
<path style="fill:#5f6062; stroke:none;" d="M79 122L80 123L79 122z"/>
<path style="fill:#8a8b8c; stroke:none;" d="M128 122L129 123L128 122z"/>
<path style="fill:#b6b6b7; stroke:none;" d="M157 122L158 123L157 122z"/>
<path style="fill:#8a8b8c; stroke:none;" d="M158 122L159 123L158 122z"/>
<path style="fill:#b6b6b7; stroke:none;" d="M208 122L209 123L208 122M79 123L80 124L79 123z"/>
<path style="fill:#8a8b8c; stroke:none;" d="M130 123L131 124L130 123z"/>
<path style="fill:#b6b6b7; stroke:none;" d="M131 123L132 124L131 123M155 123L156 124L155 123z"/>
<path style="fill:#5f6062; stroke:none;" d="M156 123L157 124L156 123M207 123L208 124L207 123z"/>
<path style="fill:#8a8b8c; stroke:none;" d="M80 124L81 125L80 124z"/>
<path style="fill:#5f6062; stroke:none;" d="M133 124L134 125L133 124z"/>
<path style="fill:#8a8b8c; stroke:none;" d="M134 124L135 125L134 124z"/>
<path style="fill:#b6b6b7; stroke:none;" d="M135.667 124.333L136.333 124.667L135.667 124.333M150.667 124.333L151.333 124.667L150.667 124.333z"/>
<path style="fill:#8a8b8c; stroke:none;" d="M152 124L153 125L152 124z"/>
<path style="fill:#5f6062; stroke:none;" d="M153 124L154 125L153 124z"/>
<path style="fill:#b6b6b7; stroke:none;" d="M207 124L208 125L207 124z"/>
<path style="fill:#5f6062; stroke:none;" d="M138 125L139 126L138 125z"/>
<path style="fill:#8a8b8c; stroke:none;" d="M139 125L139 126L147 126L139 125z"/>
<path style="fill:#5f6062; stroke:none;" d="M147.667 125.333L148.333 125.667L147.667 125.333z"/>
<path style="fill:#8a8b8c; stroke:none;" d="M206 125L207 126L206 125z"/>
<path style="fill:#b6b6b7; stroke:none;" d="M81 126L82 127L81 126z"/>
<path style="fill:#8a8b8c; stroke:none;" d="M82 127L83 128L82 127z"/>
<path style="fill:#b6b6b7; stroke:none;" d="M205 127L206 128L205 127z"/>
<path style="fill:#8a8b8c; stroke:none;" d="M204 128L205 129L204 128z"/>
<path style="fill:#b6b6b7; stroke:none;" d="M83 129L84 130L83 129z"/>
<path style="fill:#8a8b8c; stroke:none;" d="M84 130L85 131L84 130z"/>
<path style="fill:#b6b6b7; stroke:none;" d="M203 130L204 131L203 130z"/>
<path style="fill:#8a8b8c; stroke:none;" d="M202 131L203 132L202 131z"/>
<path style="fill:#b6b6b7; stroke:none;" d="M85 132L86 133L85 132z"/>
<path style="fill:#5f6062; stroke:none;" d="M201 132L202 133L201 132z"/>
<path style="fill:#b6b6b7; stroke:none;" d="M86 133L87 134L86 133z"/>
<path style="fill:#5f6062; stroke:none;" d="M200 133L201 134L200 133z"/>
<path style="fill:#b6b6b7; stroke:none;" d="M87 134L88 135L87 134z"/>
<path style="fill:#8a8b8c; stroke:none;" d="M88 135L89 136L88 135z"/>
<path style="fill:#b6b6b7; stroke:none;" d="M199 135L200 136L199 135z"/>
<path style="fill:#5f6062; stroke:none;" d="M89 136L90 137L89 136z"/>
<path style="fill:#b6b6b7; stroke:none;" d="M198 136L199 137L198 136z"/>
<path style="fill:#5f6062; stroke:none;" d="M90 137L91 138L90 137z"/>
<path style="fill:#8a8b8c; stroke:none;" d="M197 137L198 138L197 137z"/>
<path style="fill:#5f6062; stroke:none;" d="M91 138L92 139L91 138z"/>
<path style="fill:#8a8b8c; stroke:none;" d="M196 138L197 139L196 138z"/>
<path style="fill:#5f6062; stroke:none;" d="M92 139L93 140L92 139z"/>
<path style="fill:#8a8b8c; stroke:none;" d="M195 139L196 140L195 139z"/>
<path style="fill:#5f6062; stroke:none;" d="M93 140L94 141L93 140z"/>
<path style="fill:#b6b6b7; stroke:none;" d="M194 140L195 141L194 140z"/>
<path style="fill:#5f6062; stroke:none;" d="M94 141L95 142L94 141z"/>
<path style="fill:#b6b6b7; stroke:none;" d="M193 141L194 142L193 141z"/>
<path style="fill:#8a8b8c; stroke:none;" d="M95 142L96 143L95 142z"/>
<path style="fill:#b6b6b7; stroke:none;" d="M192 142L193 143L192 142M96 143L97 144L96 143z"/>
<path style="fill:#5f6062; stroke:none;" d="M190 143L191 144L190 143z"/>
<path style="fill:#b6b6b7; stroke:none;" d="M97 144L98 145L97 144z"/>
<path style="fill:#5f6062; stroke:none;" d="M189 144L190 145L189 144M99 145L100 146L99 145z"/>
<path style="fill:#8a8b8c; stroke:none;" d="M188 145L189 146L188 145M100 146L101 147L100 146z"/>
<path style="fill:#b6b6b7; stroke:none;" d="M187 146L188 147L187 146M101 147L102 148L101 147z"/>
<path style="fill:#8a8b8c; stroke:none;" d="M185 147L186 148L185 147M103 148L104 149L103 148z"/>
<path style="fill:#b6b6b7; stroke:none;" d="M184 148L185 149L184 148M104 149L105 150L104 149z"/>
<path style="fill:#5f6062; stroke:none;" d="M105 149L106 150L105 149z"/>
<path style="fill:#8a8b8c; stroke:none;" d="M182 149L183 150L182 149z"/>
<path style="fill:#b6b6b7; stroke:none;" d="M183 149L184 150L183 149z"/>
<path style="fill:#8a8b8c; stroke:none;" d="M106 150L107 151L106 150z"/>
<path style="fill:#5f6062; stroke:none;" d="M180 150L181 151L180 150z"/>
<path style="fill:#b6b6b7; stroke:none;" d="M181 150L182 151L181 150z"/>
<path style="fill:#8a8b8c; stroke:none;" d="M108 151L109 152L108 151z"/>
<path style="fill:#5f6062; stroke:none;" d="M178 151L179 152L178 151z"/>
<path style="fill:#b6b6b7; stroke:none;" d="M179 151L180 152L179 151z"/>
<path style="fill:#8a8b8c; stroke:none;" d="M110 152L111 153L110 152z"/>
<path style="fill:#b6b6b7; stroke:none;" d="M177 152L178 153L177 152z"/>
<path style="fill:#8a8b8c; stroke:none;" d="M112 153L113 154L112 153z"/>
<path style="fill:#5f6062; stroke:none;" d="M174 153L175 154L174 153z"/>
<path style="fill:#b6b6b7; stroke:none;" d="M175 153L176 154L175 153z"/>
<path style="fill:#8a8b8c; stroke:none;" d="M114 154L115 155L114 154z"/>
<path style="fill:#5f6062; stroke:none;" d="M172 154L173 155L172 154z"/>
<path style="fill:#b6b6b7; stroke:none;" d="M173 154L174 155L173 154M116 155L117 156L116 155z"/>
<path style="fill:#5f6062; stroke:none;" d="M117 155L118 156L117 155z"/>
<path style="fill:#8a8b8c; stroke:none;" d="M170 155L171 156L170 155z"/>
<path style="fill:#b6b6b7; stroke:none;" d="M171 155L172 156L171 155z"/>
<path style="fill:#8a8b8c; stroke:none;" d="M119 156L120 157L119 156z"/>
<path style="fill:#5f6062; stroke:none;" d="M120 156L121 157L120 156z"/>
<path style="fill:#8a8b8c; stroke:none;" d="M167 156L168 157L167 156z"/>
<path style="fill:#b6b6b7; stroke:none;" d="M168 156L169 157L168 156M121 157L122 158L121 157z"/>
<path style="fill:#8a8b8c; stroke:none;" d="M122 157L123 158L122 157z"/>
<path style="fill:#5f6062; stroke:none;" d="M123 157L124 158L123 157M163.667 157.333L164.333 157.667L163.667 157.333z"/>
<path style="fill:#b6b6b7; stroke:none;" d="M165 157L166 158L165 157M125 158L126 159L125 158z"/>
<path style="fill:#8a8b8c; stroke:none;" d="M126 158L127 159L126 158z"/>
<path style="fill:#5f6062; stroke:none;" d="M127 158L128 159L127 158M160 158L161 159L160 158z"/>
<path style="fill:#b6b6b7; stroke:none;" d="M161.667 158.333L162.333 158.667L161.667 158.333M129.667 159.333L130.333 159.667L129.667 159.333z"/>
<path style="fill:#8a8b8c; stroke:none;" d="M131 159L132 160L131 159z"/>
<path style="fill:#5f6062; stroke:none;" d="M132 159L133 160L132 159M154 159L155 160L154 159z"/>
<path style="fill:#8a8b8c; stroke:none;" d="M155.667 159.333L156.333 159.667L155.667 159.333z"/>
<path style="fill:#b6b6b7; stroke:none;" d="M157.667 159.333L158.333 159.667L157.667 159.333M135.667 160.333L136.333 160.667L135.667 160.333z"/>
<path style="fill:#8a8b8c; stroke:none;" d="M137.667 160.333L138.333 160.667L137.667 160.333z"/>
<path style="fill:#5f6062; stroke:none;" d="M139 160L139 161L143 161L139 160M145 160L145 161L149 161L145 160z"/>
<path style="fill:#8a8b8c; stroke:none;" d="M149.667 160.333L150.333 160.667L149.667 160.333z"/>
<path style="fill:#b6b6b7; stroke:none;" d="M151 160L152 161L151 160z"/>
</svg>
